<svg xmlns="http://www.w3.org/2000/svg" viewBox="0 0 720 464"><defs><radialGradient id="sky"><stop stop-color="#344642"/><stop offset="1" stop-color="#142527"/></radialGradient><radialGradient id="planet" cx="30%" cy="25%"><stop stop-color="#edd7af"/><stop offset=".6" stop-color="#bd966a"/><stop offset="1" stop-color="#607365"/></radialGradient></defs><rect width="720" height="464" fill="url(#sky)"/><g fill="#d6e3cc" opacity=".6"><circle cx="48" cy="48" r="1"/><circle cx="181" cy="99" r="1.2"/><circle cx="587" cy="54" r="1"/><circle cx="630" cy="283" r="1.4"/><circle cx="98" cy="298" r="1"/><circle cx="504" cy="405" r="1"/><circle cx="382" cy="41" r=".8"/><circle cx="666" cy="127" r="1"/></g><g transform="rotate(-24 362 230)" fill="none" stroke="#bdc5ab"><ellipse cx="362" cy="230" rx="270" ry="122" opacity=".2"/><ellipse cx="362" cy="230" rx="222" ry="82" opacity=".45"/></g><circle cx="362" cy="228" r="98" fill="url(#planet)"/><path d="M282 196c52-22 105 18 165-11m-169 30c74-9 112 22 177-5m-174 28c56-11 98 24 172-5m-162 28c52-9 91 18 153 1" stroke="#ddc49c" stroke-width="7" opacity=".16" fill="none"/><path d="M145 300c88 85 314 48 425-83" fill="none" stroke="#c6cdb0" opacity=".6"/><circle cx="550" cy="127" r="7" fill="#d1c49e"/><circle cx="159" cy="305" r="5" fill="#a5b9a0"/><text x="35" y="44" fill="#9fb3a4" font-size="10" font-family="sans-serif" letter-spacing="3">SKETCHBOOK / ORBITAL STUDY</text><text x="35" y="429" fill="#879f91" font-size="10" font-family="sans-serif" letter-spacing="2">EVERYTHING FINDS A RHYTHM.</text><text x="637" y="429" fill="#879f91" font-size="10" font-family="sans-serif" letter-spacing="2">NO. 04</text></svg>
